<?xml version="1.0" standalone="no"?>
<!DOCTYPE svg PUBLIC "-//W3C//DTD SVG 20010904//EN"
 "http://www.w3.org/TR/2001/REC-SVG-20010904/DTD/svg10.dtd">
<svg version="1.0" xmlns="http://www.w3.org/2000/svg"
 width="958.000000pt" height="958.000000pt" viewBox="0 0 958.000000 958.000000"
 preserveAspectRatio="xMidYMid meet">
<metadata>
Created by potrace 1.14, written by Peter Selinger 2001-2017
</metadata>
<g transform="translate(0.000000,958.000000) scale(0.100000,-0.100000)"
fill="#000000" stroke="none">
<path d="M1286 6810 l-1166 -2020 1166 -2020 1167 -2020 2332 0 2333 0 1166
2020 1166 2020 -1166 2020 -1166 2020 -2333 0 -2333 0 -1166 -2020z m6391
-352 l963 -1668 -963 -1667 -962 -1668 -1930 0 -1929 0 -963 1668 -963 1667
951 1648 c523 906 957 1657 965 1670 l14 22 1928 -2 1927 -3 962 -1667z"/>
<path d="M4694 5131 c-93 -24 -181 -97 -231 -193 -25 -47 -28 -64 -28 -148 0
-89 2 -99 34 -158 39 -71 98 -129 169 -163 68 -34 216 -34 284 0 71 34 130 92
169 163 32 59 34 69 34 158 0 84 -3 101 -28 148 -39 75 -87 124 -158 162 -50
26 -74 33 -137 36 -42 2 -91 0 -108 -5z"/>
</g>
</svg>
